# xmcd
#
# Track frame offsets: 
#        150
#        13925
#        30883
#        49191
#        67349
#        86782
#        102870
#        125153
#        145366
#        161499
#        180857
#        202818
#        225229
#        242241
#
# Disc length: 3495 seconds
#
# Revision: 0
# Processed by: cddbd v1.5.2PL0 Copyright (c) Steve Scherf et al.
# Submitted via: ExactAudioCopy v0.99pb3
#
DISCID=b80da50e
DTITLE=Tetty Kadi - Terbaik
DYEAR=2004
DGENRE=Pop
TTITLE0=Teringat Selalu
TTITLE1=Bunga Mawar
TTITLE2=Layu Sebelum Berkembang
TTITLE3=Sepanjang Jalan Kenangan
TTITLE4=Mawar Berduri
TTITLE5=Senandung Rindu
TTITLE6=Mimpi Sedih
TTITLE7=Teratai Putih
TTITLE8=Habis Gelap Terbitlah Terang
TTITLE9=Tanpamu
TTITLE10=Sebelum Kau Pergi
TTITLE11=Saling Percaya
TTITLE12=Hatiku Hatimu
TTITLE13=Setangkai Anggrek Bulan
EXTD=
EXTT0=
EXTT1=
EXTT2=
EXTT3=
EXTT4=
EXTT5=
EXTT6=
EXTT7=
EXTT8=
EXTT9=
EXTT10=
EXTT11=
EXTT12=
EXTT13=
PLAYORDER=
